<?xml version="1.0" standalone="no"?>
<!DOCTYPE svg PUBLIC "-//W3C//DTD SVG 20010904//EN"
 "http://www.w3.org/TR/2001/REC-SVG-20010904/DTD/svg10.dtd">
<svg version="1.0" xmlns="http://www.w3.org/2000/svg"
 width="200.000000pt" height="200.000000pt" viewBox="0 0 200.000000 200.000000"
 preserveAspectRatio="xMidYMid meet">
<metadata>
Created by potrace 1.14, written by Peter Selinger 2001-2017
</metadata>
<g transform="translate(0.000000,200.000000) scale(0.100000,-0.100000)"
fill="#000000" stroke="none">
<path d="M911 1774 c-369 -76 -507 -536 -242 -804 120 -121 274 -169 438 -134
97 20 169 59 239 129 94 93 140 197 143 326 4 139 -42 255 -143 354 -117 117
-272 162 -435 129z"/>
<path d="M17 758 c-8 -5 -6 -9 6 -14 25 -9 25 -181 -1 -200 -15 -12 -11 -13
31 -14 26 0 47 5 47 10 0 6 -7 10 -15 10 -11 0 -14 10 -13 40 1 42 3 43 54 40
21 -1 33 4 38 15 4 11 1 16 -12 14 -9 -1 -31 -1 -49 0 -30 1 -32 3 -30 39 l1
39 48 2 c37 1 48 -2 48 -14 0 -8 7 -15 15 -15 11 0 15 8 12 27 -4 28 -4 28
-86 28 -46 0 -88 -3 -94 -7z"/>
<path d="M274 758 c-28 -13 -61 -75 -60 -113 3 -87 65 -138 139 -113 69 25 92
139 39 199 -29 33 -80 45 -118 27z m95 -44 c31 -39 29 -107 -4 -139 -59 -60
-121 -9 -116 96 3 64 81 92 120 43z"/>
<path d="M453 757 c-3 -5 0 -13 7 -17 18 -11 19 -182 2 -188 -27 -9 -10 -22
28 -22 37 0 55 13 29 22 -14 5 -19 59 -7 74 8 12 55 7 73 -7 6 -4 12 -22 13
-40 1 -17 5 -36 8 -40 7 -12 44 -11 44 1 0 6 -4 10 -10 10 -5 0 -10 15 -10 34
0 18 -7 39 -15 46 -13 11 -13 15 0 33 20 29 19 60 -4 81 -21 19 -148 29 -158
13z m131 -33 c34 -33 8 -67 -46 -62 -33 3 -36 10 -29 68 2 16 58 12 75 -6z"/>
<path d="M667 762 c-10 -2 -17 -13 -17 -28 0 -27 24 -33 34 -8 3 9 15 14 28
12 22 -3 23 -7 23 -92 0 -62 -3 -90 -12 -93 -24 -9 -13 -21 23 -25 35 -4 56 8
36 21 -11 7 -16 55 -13 144 1 43 3 47 26 47 16 0 25 -6 25 -15 0 -8 7 -15 15
-15 10 0 15 10 15 28 l0 27 -83 0 c-46 0 -91 -1 -100 -3z"/>
<path d="M869 753 c-9 -10 -8 -13 5 -13 13 0 16 -12 16 -72 0 -40 3 -83 6 -95
6 -23 57 -53 83 -48 9 2 23 4 32 4 8 1 25 10 37 21 19 18 22 31 22 105 0 71 3
85 16 85 9 0 14 6 12 12 -6 16 -80 16 -86 0 -2 -7 3 -12 11 -12 13 0 15 -14
14 -79 -1 -49 -7 -84 -16 -95 -17 -21 -65 -21 -82 1 -19 22 -21 173 -2 173 13
0 19 19 6 21 -45 6 -65 4 -74 -8z"/>
<path d="M1120 754 c0 -7 5 -14 11 -16 9 -3 12 -55 10 -155 -1 -23 -6 -33 -17
-33 -8 0 -12 -4 -9 -10 8 -13 85 -13 85 -1 0 5 -5 11 -12 13 -8 3 -13 31 -14
82 l-1 78 54 -83 c29 -46 53 -87 53 -91 0 -5 9 -8 20 -8 21 0 24 20 20 148 -1
42 3 57 17 68 21 16 8 19 -57 15 -23 -1 -28 -21 -5 -21 12 0 15 -15 15 -75 0
-41 -2 -75 -4 -75 -1 0 -27 38 -56 85 -29 47 -56 85 -59 86 -40 5 -51 4 -51
-7z"/>
<path d="M1463 763 c-7 -2 -29 -48 -49 -101 -20 -53 -43 -102 -51 -109 -22
-17 -8 -30 27 -25 27 4 44 22 20 22 -6 0 -6 8 1 23 8 19 17 22 52 21 23 -1 45
-2 48 -3 12 -2 17 -40 6 -44 -23 -7 4 -23 33 -19 26 4 44 22 21 22 -5 0 -23
37 -40 83 -46 119 -55 135 -68 130z m36 -128 c1 -6 -15 -12 -35 -13 -26 -2
-34 1 -31 10 3 7 11 31 18 52 l13 39 17 -39 c10 -21 18 -44 18 -49z"/>
<path d="M1572 760 c-4 -3 -8 -16 -10 -28 -3 -19 0 -23 15 -20 10 2 17 10 15
17 -2 8 7 11 25 9 l28 -3 1 -89 c0 -64 -3 -89 -13 -93 -7 -3 -13 -9 -13 -14 0
-12 77 -11 85 1 3 6 -1 10 -9 10 -16 0 -17 6 -18 90 0 98 0 100 27 100 16 0
25 -6 25 -15 0 -8 7 -15 16 -15 11 0 14 8 12 27 l-3 27 -88 1 c-49 0 -92 -2
-95 -5z"/>
<path d="M1836 757 c-71 -24 -81 -180 -12 -216 93 -50 178 31 152 145 -14 62
-76 93 -140 71z m93 -43 c31 -39 29 -107 -4 -139 -45 -46 -102 -24 -114 42 -4
21 -5 48 -2 60 16 64 83 84 120 37z"/>
</g>
</svg>
